# xmcd CD database file
#
# Track frame offsets:
#	150
#	20895
#	37140
#	80287
#	106647
#	134107
#	164186
#	193180
#	225767
#	251986
#	275602
#	301194
#
# Disc length: 4166 seconds
#
# Revision: 0
# Processed by: cddbd v1.5.2PL0 Copyright (c) Steve Scherf et al.
# Submitted via: CDex 1.51
#
DISCID=aa10440c
DTITLE=Grana Louise - Generations
DYEAR=2003
DGENRE=Blues
TTITLE0=Bia Annie's Fanny
TTITLE1=Smokestack Lightnin'
TTITLE2=City Slicker Bill
TTITLE3=It's Another Workday
TTITLE4=Stranger In Moscow
TTITLE5=Down In The Dungeon
TTITLE6=Big Fat Daddy
TTITLE7=Summertime
TTITLE8=Sing Sing Prison Blues
TTITLE9=My Baby Is Ugly
TTITLE10=Little Red Rooster
TTITLE11=Great Grandmother Maggie
EXTD=YEAR: 2003
EXTT0=
EXTT1=
EXTT2=
EXTT3=
EXTT4=
EXTT5=
EXTT6=
EXTT7=
EXTT8=
EXTT9=
EXTT10=
EXTT11=
PLAYORDER=
